#!OML:ASF I:\Actors\actors\Patient Classification 2\Patient 1\Session 1\actor1.ASF
:FULLY-SPECIFIED
:DEGREES
446
root -0.533464 18.6198 4.91312 2.0643 -2.02664 -8.75122
lowerback 18.9801 2.34975 -6.42265
upperback 5.13416 1.42595 -6.37558
thorax -5.05334 0.726696 -3.53257
lowerneck -14.8296 0.263319 -0.94117
upperneck 30.4277 0.64855 0.227602
head 12.5425 0.190118 0.342951
rclavicle -1.90833e-014 3.18055e-014
rhumerus 25.8146 9.92638 -6.81178
rradius 99.626
rwrist -36.088
rhand 33.0755 -29.8202
rfingers 7.12502
rthumb 56.4487 -46.8565
lclavicle -1.90833e-014 3.18055e-014
lhumerus 23.1221 -26.9182 27.2177
lradius 81.602
lwrist 43.31
lhand -0.465313 -28.172
lfingers 7.12502
lthumb 25.1446 0.192013
rfemur 3.14132 5.53302 22.7223
rtibia 3.18055e-015
rfoot -15.3162 -15.2582
rtoes -14.0384
lfemur -14.2247 -0.132287 -4.66481
ltibia 32.3889
lfoot -20.5502 7.83535
ltoes -56.8443
447
root -0.539936 18.6228 4.88921 2.2499 -1.69386 -8.85978
lowerback 19.1765 2.44454 -6.22879
upperback 5.20973 1.57582 -6.32033
thorax -5.07004 0.798923 -3.62356
lowerneck -14.8953 0.220006 -0.838778
upperneck 30.6489 0.519161 0.365171
head 12.6475 0.1631 0.359845
rclavicle 1.43125e-014 -7.31528e-014
rhumerus 26.6298 10.2578 -6.84811
rradius 98.8423
rwrist -35.2971
rhand 32.5724 -28.9988
rfingers 7.12502
rthumb 56.0036 -46.3858
lclavicle 1.43125e-014 -7.31528e-014
lhumerus 23.7062 -27.0774 27.2591
lradius 81.5951
lwrist 43.317
lhand -0.437142 -28.1077
lfingers 7.12502
lthumb 25.1716 0.252537
rfemur 2.87238 5.21397 22.8378
rtibia -1.11319e-014
rfoot -15.3455 -15.2422
rtoes -13.6803
lfemur -14.6633 -0.286344 -4.50177
ltibia 32.46
lfoot -20.4647 7.6978
ltoes -56.7717
448
root -0.546039 18.6259 4.86793 2.45525 -1.34059 -8.961
lowerback 19.3427 2.49136 -6.04619
upperback 5.25978 1.66352 -6.25806
thorax -5.09931 0.841275 -3.68582
lowerneck -14.9146 0.207109 -0.849213
upperneck 30.861 0.458272 0.523749
head 12.7388 0.156081 0.414611
rclavicle -2.38542e-014 -3.18055e-014
rhumerus 27.6636 10.6835 -6.80215
rradius 98.161
rwrist -34.3002
rhand 31.5297 -28.7232
rfingers 7.12502
rthumb 55.0767 -46.8062
lclavicle -2.38542e-014 -3.18055e-014
lhumerus 24.1129 -27.2318 27.3283
lradius 81.655
lwrist 43.3352
lhand -0.40377 -28.0179
lfingers 7.12502
lthumb 25.2036 0.337823
rfemur 2.59233 4.87604 22.9455
rtibia 6.36111e-015
rfoot -15.3531 -15.2218
rtoes -13.3471
lfemur -15.127 -0.452722 -4.35317
ltibia 32.528
lfoot -20.3716 7.62938
ltoes -56.7722
449
root -0.551453 18.6292 4.84749 2.61504 -0.947184 -9.07867
lowerback 19.5272 2.51621 -5.878
upperback 5.33759 1.72256 -6.17282
thorax -5.10926 0.869467 -3.70822
lowerneck -14.9287 0.219921 -0.759099
upperneck 31.0502 0.431716 0.596714
head 12.8203 0.164818 0.424237
rclavicle -4.45278e-014 3.18055e-014
rhumerus 28.6617 11.0843 -6.58321
rradius 97.555
rwrist -33.9159
rhand 31.2944 -28.9674
rfingers 7.12502
rthumb 54.8667 -47.2021
lclavicle -4.45278e-014 3.18055e-014
lhumerus 24.4774 -27.3858 27.3617
lradius 81.7022
lwrist 43.3918
lhand -0.515146 -28.1676
lfingers 7.12502
lthumb 25.0969 0.203126
rfemur 2.36798 4.49726 23.0763
rtibia 1.27222e-014
rfoot -15.3078 -15.202
rtoes -13.0685
lfemur -15.5499 -0.639149 -4.18915
ltibia 32.5825
lfoot -20.2068 7.56317
ltoes -56.7934
450
root -0.558307 18.6323 4.82708 2.70834 -0.544664 -9.19874
lowerback 19.8038 2.56312 -5.71632
upperback 5.43393 1.79897 -6.12525
thorax -5.14543 0.906224 -3.77669
lowerneck -14.9888 0.218917 -0.586668
upperneck 31.227 0.337246 0.741
head 12.9074 0.163303 0.437009
rclavicle -3.02153e-014 9.54166e-015
rhumerus 29.4787 11.448 -6.23483
rradius 97.0436
rwrist -34.2232
rhand 31.5556 -29.5133
rfingers 7.12502
rthumb 55.0998 -47.5796
lclavicle -3.02153e-014 9.54166e-015
lhumerus 25.0136 -27.5497 27.2421
lradius 81.7418
lwrist 43.5568
lhand -0.610577 -28.247
lfingers 7.12502
lthumb 25.0054 0.136447
rfemur 2.21487 4.1067 23.2203
rtibia 8.74653e-015
rfoot -15.3139 -15.1541
rtoes -12.6111
lfemur -15.8927 -0.835438 -4.01427
ltibia 32.6127
lfoot -20.0229 7.47878
ltoes -56.8067
451
root -0.566642 18.634 4.80834 2.74883 -0.149891 -9.29281
lowerback 20.1722 2.61056 -5.55555
upperback 5.54377 1.86504 -6.12731
thorax -5.21255 0.938076 -3.90133
lowerneck -15.3033 0.197699 -0.79215
upperneck 31.6024 0.197056 1.27936
head 13.1324 0.149581 0.664441
rclavicle 1.11319e-014 5.08889e-014
rhumerus 30.2049 11.8085 -5.75292
rradius 96.5594
rwrist -34.6527
rhand 31.7412 -29.8708
rfingers 7.12502
rthumb 55.2652 -47.8159
lclavicle 1.11319e-014 5.08889e-014
lhumerus 25.6527 -27.6654 27.0317
lradius 81.8043
lwrist 43.7098
lhand -0.706531 -28.0893
lfingers 7.12502
lthumb 24.9135 0.306983
rfemur 2.13062 3.72015 23.3454
rtibia 3.18055e-015
rfoot -15.3714 -15.0446
rtoes -11.7686
lfemur -16.1661 -0.98846 -3.86258
ltibia 32.6261
lfoot -19.8553 7.34049
ltoes -56.9067
452
root -0.574225 18.6348 4.79107 2.78419 0.249944 -9.38832
lowerback 20.4942 2.66157 -5.41736
upperback 5.64558 1.93672 -6.12373
thorax -5.26372 0.972776 -4.00695
lowerneck -15.4962 0.14963 -1.07735
upperneck 31.9437 0.0310768 1.84328
head 13.3207 0.119164 0.91366
rclavicle -7.95139e-015 -2.22639e-014
rhumerus 30.8475 12.2141 -5.15805
rradius 96.0432
rwrist -34.885
rhand 32.0864 -29.783
rfingers 7.12502
rthumb 55.5723 -47.4995
lclavicle -7.95139e-015 -2.22639e-014
lhumerus 26.2836 -27.7841 26.8147
lradius 81.8594
lwrist 43.8611
lhand -0.786703 -28.0103
lfingers 7.12502
lthumb 24.8366 0.39658
rfemur 2.05444 3.32855 23.4716
rtibia 1.59028e-015
rfoot -15.3933 -14.9516
rtoes -11.1233
lfemur -16.4298 -1.0784 -3.71464
ltibia 32.6326
lfoot -19.666 7.1365
ltoes -57.0609
453
root -0.581637 18.6355 4.77437 2.82561 0.657897 -9.54329
lowerback 20.7717 2.73768 -5.20607
upperback 5.6693 2.05411 -6.13365
thorax -5.37168 1.02985 -4.18183
lowerneck -15.1327 0.0999378 -0.992057
upperneck 31.9983 -0.148252 2.0963
head 13.2688 0.0852147 0.969159
rclavicle -3.65764e-014 -6.36111e-015
rhumerus 31.292 12.7677 -4.56534
rradius 95.5292
rwrist -35.0762
rhand 32.2408 -29.7595
rfingers 7.12502
rthumb 55.7095 -47.3723
lclavicle -3.65764e-014 -6.36111e-015
lhumerus 26.9176 -28.0783 26.5506
lradius 81.9396
lwrist 44.0638
lhand -0.765625 -28.0884
lfingers 7.12502
lthumb 24.8568 0.315672
rfemur 1.96436 2.93255 23.6612
rtibia 1.90833e-014
rfoot -15.3559 -14.9096
rtoes -10.9157
lfemur -16.6948 -1.18521 -3.50277
ltibia 32.6359
lfoot -19.4913 6.93818
ltoes -57.1614
454
root -0.589917 18.6371 4.75748 2.87759 1.07888 -9.71074
lowerback 21.0432 2.74949 -5.03881
upperback 5.75201 2.08809 -6.10525
thorax -5.41701 1.04607 -4.26635
lowerneck -14.9409 0.137506 -0.916608
upperneck 32.0597 -0.142363 2.18563
head 13.2533 0.108945 0.991902
rclavicle 3.18055e-015 4.77083e-014
rhumerus 31.9531 13.2145 -3.89789
rradius 95.0305
rwrist -35.3543
rhand 32.2633 -30.0434
rfingers 7.12502
rthumb 55.7294 -47.641
lclavicle 3.18055e-015 4.77083e-014
lhumerus 27.4155 -28.1447 26.3901
lradius 81.9966
lwrist 44.2287
lhand -0.766155 -28.0582
lfingers 7.12502
lthumb 24.8563 0.345946
rfemur 1.86229 2.52554 23.8705
rtibia 1.59028e-015
rfoot -15.2789 -14.8972
rtoes -10.898
lfemur -16.9829 -1.31992 -3.27003
ltibia 32.6465
lfoot -19.3482 6.75626
ltoes -57.2154
455
root -0.598158 18.6392 4.74155 2.92298 1.48517 -9.83063
lowerback 21.294 2.70123 -5.09156
upperback 6.1294 2.02911 -6.00033
thorax -5.14293 1.01653 -4.10438
lowerneck -15.7869 0.214708 -1.092
upperneck 32.3132 0.00769239 2.24072
head 13.5431 0.163862 1.07651
rclavicle -4.45278e-014 -3.18055e-015
rhumerus 33.0013 13.1326 -3.1155
rradius 94.4667
rwrist -35.6797
rhand 32.4287 -30.2729
rfingers 7.12502
rthumb 55.8762 -47.7582
lclavicle -4.45278e-014 -3.18055e-015
lhumerus 27.9815 -27.5147 26.3542
lradius 81.8798
lwrist 44.3233
lhand -0.755271 -28.0156
lfingers 7.12502
lthumb 24.8668 0.387127
rfemur 1.77322 2.13076 24.0326
rtibia 0
rfoot -15.2215 -14.8978
rtoes -11.0071
lfemur -17.2674 -1.47055 -3.09018
ltibia 32.6724
lfoot -19.2178 6.59845
ltoes -57.3038
456
root -0.605256 18.6407 4.72749 2.97857 1.87509 -9.99059
lowerback 21.561 2.74508 -4.91343
upperback 6.13855 2.09793 -6.03674
thorax -5.26088 1.0506 -4.27822
lowerneck -15.4715 0.163501 -1.07792
upperneck 32.5747 -0.171101 2.54305
head 13.5917 0.128003 1.1676
rclavicle -4.77083e-014 -5.725e-014
rhumerus 33.3925 13.8589 -2.59748
rradius 93.9848
rwrist -36.1393
rhand 32.9979 -30.2211
rfingers 7.12502
rthumb 56.3801 -47.3121
lclavicle -4.77083e-014 -5.725e-014
lhumerus 28.5772 -27.7348 26.165
lradius 81.7559
lwrist 44.4906
lhand -0.551761 -28.0473
lfingers 7.12502
lthumb 25.0618 0.328323
rfemur 1.67373 1.75564 24.2351
rtibia 4.77083e-015
rfoot -15.189 -14.8947
rtoes -11.1674
lfemur -17.5557 -1.67213 -2.86743
ltibia 32.7119
lfoot -19.1289 6.47663
ltoes -57.318
457
root -0.609767 18.6421 4.71301 3.06694 2.28142 -10.1694
lowerback 21.8592 2.70865 -4.74858
upperback 6.32389 2.07259 -6.06295
thorax -5.20622 1.0385 -4.40354
lowerneck -16.0866 0.130614 -1.30158
upperneck 33.1447 -0.322576 3.04831
head 13.9833 0.106365 1.39903
rclavicle -1.27222e-014 8.90555e-014
rhumerus 34.0793 14.1868 -2.0871
rradius 93.4306
rwrist -36.7832
rhand 33.9844 -30.2177
rfingers 7.12502
rthumb 57.249 -46.5944
lclavicle -1.27222e-014 8.90555e-014
lhumerus 29.2208 -27.4465 25.964
lradius 81.5956
lwrist 44.8097
lhand -0.0456823 -27.6752
lfingers 7.12502
lthumb 25.5466 0.631883
rfemur 1.52918 1.36805 24.4447
rtibia 0
rfoot -15.1735 -14.8827
rtoes -11.0712
lfemur -17.8998 -1.87528 -2.6325
ltibia 32.7653
lfoot -19.0361 6.34731
ltoes -57.286
